<mxfile host="app.diagrams.net" modified="2024-03-03T17:54:02.981Z" agent="Mozilla/5.0 (Windows NT 10.0; Win64; x64) AppleWebKit/537.36 (KHTML, like Gecko) Chrome/122.0.0.0 Safari/537.36" etag="LE3oq4k4zfJyjhbAGNE4" version="24.0.1" type="github">
  <diagram id="C5RBs43oDa-KdzZeNtuy" name="Page-1">
    <mxGraphModel dx="1461" dy="725" grid="1" gridSize="10" guides="1" tooltips="1" connect="1" arrows="1" fold="1" page="1" pageScale="1" pageWidth="827" pageHeight="1169" math="0" shadow="0">
      <root>
        <mxCell id="WIyWlLk6GJQsqaUBKTNV-0" />
        <mxCell id="WIyWlLk6GJQsqaUBKTNV-1" parent="WIyWlLk6GJQsqaUBKTNV-0" />
        <mxCell id="XeOWCkvkYtLvS--5uMvi-1" style="edgeStyle=orthogonalEdgeStyle;rounded=0;orthogonalLoop=1;jettySize=auto;html=1;exitX=0.5;exitY=1;exitDx=0;exitDy=0;entryX=0.5;entryY=0;entryDx=0;entryDy=0;" edge="1" parent="WIyWlLk6GJQsqaUBKTNV-1" source="WIyWlLk6GJQsqaUBKTNV-3" target="XeOWCkvkYtLvS--5uMvi-0">
          <mxGeometry relative="1" as="geometry" />
        </mxCell>
        <mxCell id="WIyWlLk6GJQsqaUBKTNV-3" value="开始" style="rounded=1;whiteSpace=wrap;html=1;fontSize=12;glass=0;strokeWidth=1;shadow=0;" parent="WIyWlLk6GJQsqaUBKTNV-1" vertex="1">
          <mxGeometry x="330" y="20" width="120" height="40" as="geometry" />
        </mxCell>
        <mxCell id="XeOWCkvkYtLvS--5uMvi-3" style="edgeStyle=orthogonalEdgeStyle;rounded=0;orthogonalLoop=1;jettySize=auto;html=1;exitX=0.5;exitY=1;exitDx=0;exitDy=0;entryX=0.5;entryY=0;entryDx=0;entryDy=0;" edge="1" parent="WIyWlLk6GJQsqaUBKTNV-1" source="XeOWCkvkYtLvS--5uMvi-0" target="XeOWCkvkYtLvS--5uMvi-2">
          <mxGeometry relative="1" as="geometry" />
        </mxCell>
        <mxCell id="XeOWCkvkYtLvS--5uMvi-0" value="根据步长循环" style="rhombus;whiteSpace=wrap;html=1;" vertex="1" parent="WIyWlLk6GJQsqaUBKTNV-1">
          <mxGeometry x="350" y="110" width="80" height="70" as="geometry" />
        </mxCell>
        <mxCell id="XeOWCkvkYtLvS--5uMvi-5" style="edgeStyle=orthogonalEdgeStyle;rounded=0;orthogonalLoop=1;jettySize=auto;html=1;exitX=0.5;exitY=1;exitDx=0;exitDy=0;" edge="1" parent="WIyWlLk6GJQsqaUBKTNV-1" source="XeOWCkvkYtLvS--5uMvi-2" target="XeOWCkvkYtLvS--5uMvi-4">
          <mxGeometry relative="1" as="geometry" />
        </mxCell>
        <mxCell id="XeOWCkvkYtLvS--5uMvi-2" value="判断是否是第一个周期" style="rhombus;whiteSpace=wrap;html=1;" vertex="1" parent="WIyWlLk6GJQsqaUBKTNV-1">
          <mxGeometry x="350" y="210" width="80" height="70" as="geometry" />
        </mxCell>
        <mxCell id="XeOWCkvkYtLvS--5uMvi-13" style="edgeStyle=orthogonalEdgeStyle;rounded=0;orthogonalLoop=1;jettySize=auto;html=1;exitX=0.5;exitY=1;exitDx=0;exitDy=0;entryX=0.5;entryY=0;entryDx=0;entryDy=0;" edge="1" parent="WIyWlLk6GJQsqaUBKTNV-1" source="XeOWCkvkYtLvS--5uMvi-4" target="XeOWCkvkYtLvS--5uMvi-12">
          <mxGeometry relative="1" as="geometry" />
        </mxCell>
        <mxCell id="XeOWCkvkYtLvS--5uMvi-4" value="第一次初期化" style="rounded=0;whiteSpace=wrap;html=1;" vertex="1" parent="WIyWlLk6GJQsqaUBKTNV-1">
          <mxGeometry x="220" y="340" width="100" height="40" as="geometry" />
        </mxCell>
        <mxCell id="XeOWCkvkYtLvS--5uMvi-6" value="yes" style="text;html=1;align=center;verticalAlign=middle;whiteSpace=wrap;rounded=0;" vertex="1" parent="WIyWlLk6GJQsqaUBKTNV-1">
          <mxGeometry x="280" y="270" width="60" height="30" as="geometry" />
        </mxCell>
        <mxCell id="XeOWCkvkYtLvS--5uMvi-7" value="把部分上个周期的输出作为此周期的输入" style="rounded=0;whiteSpace=wrap;html=1;" vertex="1" parent="WIyWlLk6GJQsqaUBKTNV-1">
          <mxGeometry x="440" y="340" width="100" height="40" as="geometry" />
        </mxCell>
        <mxCell id="XeOWCkvkYtLvS--5uMvi-10" value="" style="endArrow=classic;html=1;rounded=0;entryX=0.5;entryY=0;entryDx=0;entryDy=0;" edge="1" parent="WIyWlLk6GJQsqaUBKTNV-1" target="XeOWCkvkYtLvS--5uMvi-7">
          <mxGeometry width="50" height="50" relative="1" as="geometry">
            <mxPoint x="390" y="310" as="sourcePoint" />
            <mxPoint x="530" y="240" as="targetPoint" />
            <Array as="points">
              <mxPoint x="490" y="310" />
            </Array>
          </mxGeometry>
        </mxCell>
        <mxCell id="XeOWCkvkYtLvS--5uMvi-11" value="no" style="text;html=1;align=center;verticalAlign=middle;whiteSpace=wrap;rounded=0;" vertex="1" parent="WIyWlLk6GJQsqaUBKTNV-1">
          <mxGeometry x="430" y="270" width="60" height="30" as="geometry" />
        </mxCell>
        <mxCell id="XeOWCkvkYtLvS--5uMvi-16" value="" style="edgeStyle=orthogonalEdgeStyle;rounded=0;orthogonalLoop=1;jettySize=auto;html=1;" edge="1" parent="WIyWlLk6GJQsqaUBKTNV-1" source="XeOWCkvkYtLvS--5uMvi-12" target="XeOWCkvkYtLvS--5uMvi-15">
          <mxGeometry relative="1" as="geometry" />
        </mxCell>
        <mxCell id="XeOWCkvkYtLvS--5uMvi-12" value="三角函数（sin）" style="rounded=0;whiteSpace=wrap;html=1;" vertex="1" parent="WIyWlLk6GJQsqaUBKTNV-1">
          <mxGeometry x="340" y="420" width="100" height="30" as="geometry" />
        </mxCell>
        <mxCell id="XeOWCkvkYtLvS--5uMvi-14" value="" style="endArrow=classic;html=1;rounded=0;entryX=0.5;entryY=0;entryDx=0;entryDy=0;exitX=0.5;exitY=1;exitDx=0;exitDy=0;" edge="1" parent="WIyWlLk6GJQsqaUBKTNV-1" source="XeOWCkvkYtLvS--5uMvi-7" target="XeOWCkvkYtLvS--5uMvi-12">
          <mxGeometry width="50" height="50" relative="1" as="geometry">
            <mxPoint x="510" y="480" as="sourcePoint" />
            <mxPoint x="560" y="430" as="targetPoint" />
            <Array as="points">
              <mxPoint x="490" y="400" />
              <mxPoint x="390" y="400" />
            </Array>
          </mxGeometry>
        </mxCell>
        <mxCell id="XeOWCkvkYtLvS--5uMvi-20" style="edgeStyle=orthogonalEdgeStyle;rounded=0;orthogonalLoop=1;jettySize=auto;html=1;exitX=0.5;exitY=1;exitDx=0;exitDy=0;entryX=0.5;entryY=0;entryDx=0;entryDy=0;" edge="1" parent="WIyWlLk6GJQsqaUBKTNV-1" source="XeOWCkvkYtLvS--5uMvi-15" target="XeOWCkvkYtLvS--5uMvi-19">
          <mxGeometry relative="1" as="geometry" />
        </mxCell>
        <mxCell id="XeOWCkvkYtLvS--5uMvi-15" value="合并矩阵" style="rounded=0;whiteSpace=wrap;html=1;" vertex="1" parent="WIyWlLk6GJQsqaUBKTNV-1">
          <mxGeometry x="340" y="480" width="100" height="40" as="geometry" />
        </mxCell>
        <mxCell id="XeOWCkvkYtLvS--5uMvi-28" style="edgeStyle=orthogonalEdgeStyle;rounded=0;orthogonalLoop=1;jettySize=auto;html=1;exitX=0.5;exitY=1;exitDx=0;exitDy=0;" edge="1" parent="WIyWlLk6GJQsqaUBKTNV-1" source="XeOWCkvkYtLvS--5uMvi-17" target="XeOWCkvkYtLvS--5uMvi-27">
          <mxGeometry relative="1" as="geometry" />
        </mxCell>
        <mxCell id="XeOWCkvkYtLvS--5uMvi-17" value="第一次初期化" style="rounded=0;whiteSpace=wrap;html=1;" vertex="1" parent="WIyWlLk6GJQsqaUBKTNV-1">
          <mxGeometry x="200" y="610" width="100" height="40" as="geometry" />
        </mxCell>
        <mxCell id="XeOWCkvkYtLvS--5uMvi-21" style="edgeStyle=orthogonalEdgeStyle;rounded=0;orthogonalLoop=1;jettySize=auto;html=1;exitX=0;exitY=0.5;exitDx=0;exitDy=0;entryX=0.5;entryY=0;entryDx=0;entryDy=0;" edge="1" parent="WIyWlLk6GJQsqaUBKTNV-1" source="XeOWCkvkYtLvS--5uMvi-19" target="XeOWCkvkYtLvS--5uMvi-17">
          <mxGeometry relative="1" as="geometry" />
        </mxCell>
        <mxCell id="XeOWCkvkYtLvS--5uMvi-23" style="edgeStyle=orthogonalEdgeStyle;rounded=0;orthogonalLoop=1;jettySize=auto;html=1;exitX=1;exitY=0.5;exitDx=0;exitDy=0;entryX=0.5;entryY=0;entryDx=0;entryDy=0;" edge="1" parent="WIyWlLk6GJQsqaUBKTNV-1" source="XeOWCkvkYtLvS--5uMvi-19" target="XeOWCkvkYtLvS--5uMvi-22">
          <mxGeometry relative="1" as="geometry" />
        </mxCell>
        <mxCell id="XeOWCkvkYtLvS--5uMvi-19" value="判断是否是第一个周期" style="rhombus;whiteSpace=wrap;html=1;" vertex="1" parent="WIyWlLk6GJQsqaUBKTNV-1">
          <mxGeometry x="350" y="540" width="80" height="70" as="geometry" />
        </mxCell>
        <mxCell id="XeOWCkvkYtLvS--5uMvi-26" value="" style="edgeStyle=orthogonalEdgeStyle;rounded=0;orthogonalLoop=1;jettySize=auto;html=1;" edge="1" parent="WIyWlLk6GJQsqaUBKTNV-1" source="XeOWCkvkYtLvS--5uMvi-22" target="XeOWCkvkYtLvS--5uMvi-25">
          <mxGeometry relative="1" as="geometry" />
        </mxCell>
        <mxCell id="XeOWCkvkYtLvS--5uMvi-22" value="三角函数（sin）" style="rounded=0;whiteSpace=wrap;html=1;" vertex="1" parent="WIyWlLk6GJQsqaUBKTNV-1">
          <mxGeometry x="460" y="600" width="100" height="30" as="geometry" />
        </mxCell>
        <mxCell id="XeOWCkvkYtLvS--5uMvi-24" value="yes" style="text;html=1;align=center;verticalAlign=middle;whiteSpace=wrap;rounded=0;" vertex="1" parent="WIyWlLk6GJQsqaUBKTNV-1">
          <mxGeometry x="260" y="530" width="60" height="30" as="geometry" />
        </mxCell>
        <mxCell id="XeOWCkvkYtLvS--5uMvi-34" style="edgeStyle=orthogonalEdgeStyle;rounded=0;orthogonalLoop=1;jettySize=auto;html=1;exitX=0.5;exitY=1;exitDx=0;exitDy=0;entryX=0.5;entryY=0;entryDx=0;entryDy=0;" edge="1" parent="WIyWlLk6GJQsqaUBKTNV-1" source="XeOWCkvkYtLvS--5uMvi-25" target="XeOWCkvkYtLvS--5uMvi-33">
          <mxGeometry relative="1" as="geometry" />
        </mxCell>
        <mxCell id="XeOWCkvkYtLvS--5uMvi-25" value="矩阵分割" style="rounded=0;whiteSpace=wrap;html=1;" vertex="1" parent="WIyWlLk6GJQsqaUBKTNV-1">
          <mxGeometry x="460" y="640" width="100" height="30" as="geometry" />
        </mxCell>
        <mxCell id="XeOWCkvkYtLvS--5uMvi-32" style="edgeStyle=orthogonalEdgeStyle;rounded=0;orthogonalLoop=1;jettySize=auto;html=1;exitX=0.5;exitY=1;exitDx=0;exitDy=0;entryX=0.5;entryY=0;entryDx=0;entryDy=0;" edge="1" parent="WIyWlLk6GJQsqaUBKTNV-1" source="XeOWCkvkYtLvS--5uMvi-27" target="XeOWCkvkYtLvS--5uMvi-31">
          <mxGeometry relative="1" as="geometry" />
        </mxCell>
        <mxCell id="XeOWCkvkYtLvS--5uMvi-42" style="edgeStyle=orthogonalEdgeStyle;rounded=0;orthogonalLoop=1;jettySize=auto;html=1;exitX=1;exitY=0.5;exitDx=0;exitDy=0;entryX=0.5;entryY=0;entryDx=0;entryDy=0;" edge="1" parent="WIyWlLk6GJQsqaUBKTNV-1" source="XeOWCkvkYtLvS--5uMvi-27" target="XeOWCkvkYtLvS--5uMvi-38">
          <mxGeometry relative="1" as="geometry" />
        </mxCell>
        <mxCell id="XeOWCkvkYtLvS--5uMvi-27" value="是否存在断路器" style="rhombus;whiteSpace=wrap;html=1;" vertex="1" parent="WIyWlLk6GJQsqaUBKTNV-1">
          <mxGeometry x="210" y="710" width="80" height="70" as="geometry" />
        </mxCell>
        <mxCell id="XeOWCkvkYtLvS--5uMvi-30" value="存在" style="text;html=1;align=center;verticalAlign=middle;whiteSpace=wrap;rounded=0;" vertex="1" parent="WIyWlLk6GJQsqaUBKTNV-1">
          <mxGeometry x="260" y="770" width="60" height="30" as="geometry" />
        </mxCell>
        <mxCell id="XeOWCkvkYtLvS--5uMvi-44" style="edgeStyle=orthogonalEdgeStyle;rounded=0;orthogonalLoop=1;jettySize=auto;html=1;entryX=0;entryY=0.5;entryDx=0;entryDy=0;" edge="1" parent="WIyWlLk6GJQsqaUBKTNV-1" source="XeOWCkvkYtLvS--5uMvi-31" target="XeOWCkvkYtLvS--5uMvi-38">
          <mxGeometry relative="1" as="geometry">
            <Array as="points">
              <mxPoint x="250" y="930" />
            </Array>
          </mxGeometry>
        </mxCell>
        <mxCell id="XeOWCkvkYtLvS--5uMvi-31" value="创建一个新一维向量" style="rounded=0;whiteSpace=wrap;html=1;" vertex="1" parent="WIyWlLk6GJQsqaUBKTNV-1">
          <mxGeometry x="200" y="820" width="100" height="40" as="geometry" />
        </mxCell>
        <mxCell id="XeOWCkvkYtLvS--5uMvi-36" style="edgeStyle=orthogonalEdgeStyle;rounded=0;orthogonalLoop=1;jettySize=auto;html=1;exitX=0.5;exitY=1;exitDx=0;exitDy=0;entryX=0.5;entryY=0;entryDx=0;entryDy=0;" edge="1" parent="WIyWlLk6GJQsqaUBKTNV-1" source="XeOWCkvkYtLvS--5uMvi-33" target="XeOWCkvkYtLvS--5uMvi-35">
          <mxGeometry relative="1" as="geometry" />
        </mxCell>
        <mxCell id="XeOWCkvkYtLvS--5uMvi-43" style="edgeStyle=orthogonalEdgeStyle;rounded=0;orthogonalLoop=1;jettySize=auto;html=1;exitX=0;exitY=0.5;exitDx=0;exitDy=0;entryX=0.5;entryY=0;entryDx=0;entryDy=0;" edge="1" parent="WIyWlLk6GJQsqaUBKTNV-1" source="XeOWCkvkYtLvS--5uMvi-33" target="XeOWCkvkYtLvS--5uMvi-38">
          <mxGeometry relative="1" as="geometry" />
        </mxCell>
        <mxCell id="XeOWCkvkYtLvS--5uMvi-33" value="是否存在断路器" style="rhombus;whiteSpace=wrap;html=1;" vertex="1" parent="WIyWlLk6GJQsqaUBKTNV-1">
          <mxGeometry x="470" y="710" width="80" height="70" as="geometry" />
        </mxCell>
        <mxCell id="XeOWCkvkYtLvS--5uMvi-45" style="edgeStyle=orthogonalEdgeStyle;rounded=0;orthogonalLoop=1;jettySize=auto;html=1;entryX=1;entryY=0.5;entryDx=0;entryDy=0;" edge="1" parent="WIyWlLk6GJQsqaUBKTNV-1" source="XeOWCkvkYtLvS--5uMvi-35" target="XeOWCkvkYtLvS--5uMvi-38">
          <mxGeometry relative="1" as="geometry">
            <Array as="points">
              <mxPoint x="510" y="930" />
            </Array>
          </mxGeometry>
        </mxCell>
        <mxCell id="XeOWCkvkYtLvS--5uMvi-35" value="将上个周期断路器的数据作为此周期断路器数据" style="rounded=0;whiteSpace=wrap;html=1;" vertex="1" parent="WIyWlLk6GJQsqaUBKTNV-1">
          <mxGeometry x="460" y="820" width="100" height="40" as="geometry" />
        </mxCell>
        <mxCell id="XeOWCkvkYtLvS--5uMvi-37" value="存在" style="text;html=1;align=center;verticalAlign=middle;whiteSpace=wrap;rounded=0;" vertex="1" parent="WIyWlLk6GJQsqaUBKTNV-1">
          <mxGeometry x="540" y="770" width="60" height="30" as="geometry" />
        </mxCell>
        <mxCell id="XeOWCkvkYtLvS--5uMvi-47" style="edgeStyle=orthogonalEdgeStyle;rounded=0;orthogonalLoop=1;jettySize=auto;html=1;exitX=0.5;exitY=1;exitDx=0;exitDy=0;entryX=0.5;entryY=0;entryDx=0;entryDy=0;" edge="1" parent="WIyWlLk6GJQsqaUBKTNV-1" source="XeOWCkvkYtLvS--5uMvi-38" target="XeOWCkvkYtLvS--5uMvi-46">
          <mxGeometry relative="1" as="geometry" />
        </mxCell>
        <mxCell id="XeOWCkvkYtLvS--5uMvi-38" value="合并矩阵" style="rounded=0;whiteSpace=wrap;html=1;" vertex="1" parent="WIyWlLk6GJQsqaUBKTNV-1">
          <mxGeometry x="330" y="910" width="100" height="40" as="geometry" />
        </mxCell>
        <mxCell id="XeOWCkvkYtLvS--5uMvi-49" style="edgeStyle=orthogonalEdgeStyle;rounded=0;orthogonalLoop=1;jettySize=auto;html=1;exitX=0.5;exitY=1;exitDx=0;exitDy=0;entryX=0.5;entryY=0;entryDx=0;entryDy=0;" edge="1" parent="WIyWlLk6GJQsqaUBKTNV-1" source="XeOWCkvkYtLvS--5uMvi-46" target="XeOWCkvkYtLvS--5uMvi-48">
          <mxGeometry relative="1" as="geometry" />
        </mxCell>
        <mxCell id="XeOWCkvkYtLvS--5uMvi-46" value="矩阵乘法" style="rounded=0;whiteSpace=wrap;html=1;" vertex="1" parent="WIyWlLk6GJQsqaUBKTNV-1">
          <mxGeometry x="330" y="970" width="100" height="40" as="geometry" />
        </mxCell>
        <mxCell id="XeOWCkvkYtLvS--5uMvi-51" value="" style="edgeStyle=orthogonalEdgeStyle;rounded=0;orthogonalLoop=1;jettySize=auto;html=1;" edge="1" parent="WIyWlLk6GJQsqaUBKTNV-1" source="XeOWCkvkYtLvS--5uMvi-48" target="XeOWCkvkYtLvS--5uMvi-50">
          <mxGeometry relative="1" as="geometry" />
        </mxCell>
        <mxCell id="XeOWCkvkYtLvS--5uMvi-48" value="矩阵分割" style="rounded=0;whiteSpace=wrap;html=1;" vertex="1" parent="WIyWlLk6GJQsqaUBKTNV-1">
          <mxGeometry x="330" y="1030" width="100" height="40" as="geometry" />
        </mxCell>
        <mxCell id="XeOWCkvkYtLvS--5uMvi-53" value="" style="edgeStyle=orthogonalEdgeStyle;rounded=0;orthogonalLoop=1;jettySize=auto;html=1;" edge="1" parent="WIyWlLk6GJQsqaUBKTNV-1" source="XeOWCkvkYtLvS--5uMvi-50" target="XeOWCkvkYtLvS--5uMvi-52">
          <mxGeometry relative="1" as="geometry" />
        </mxCell>
        <mxCell id="XeOWCkvkYtLvS--5uMvi-50" value="判断是否存在IGBT" style="rhombus;whiteSpace=wrap;html=1;" vertex="1" parent="WIyWlLk6GJQsqaUBKTNV-1">
          <mxGeometry x="340" y="1099" width="80" height="70" as="geometry" />
        </mxCell>
        <mxCell id="XeOWCkvkYtLvS--5uMvi-55" style="edgeStyle=orthogonalEdgeStyle;rounded=0;orthogonalLoop=1;jettySize=auto;html=1;entryX=0.5;entryY=0;entryDx=0;entryDy=0;" edge="1" parent="WIyWlLk6GJQsqaUBKTNV-1" source="XeOWCkvkYtLvS--5uMvi-52" target="XeOWCkvkYtLvS--5uMvi-54">
          <mxGeometry relative="1" as="geometry" />
        </mxCell>
        <mxCell id="XeOWCkvkYtLvS--5uMvi-52" value="迭代所有的IGBT" style="rhombus;whiteSpace=wrap;html=1;" vertex="1" parent="WIyWlLk6GJQsqaUBKTNV-1">
          <mxGeometry x="340" y="1190" width="80" height="70" as="geometry" />
        </mxCell>
        <mxCell id="XeOWCkvkYtLvS--5uMvi-59" style="edgeStyle=orthogonalEdgeStyle;rounded=0;orthogonalLoop=1;jettySize=auto;html=1;entryX=0.5;entryY=0;entryDx=0;entryDy=0;" edge="1" parent="WIyWlLk6GJQsqaUBKTNV-1" source="XeOWCkvkYtLvS--5uMvi-54" target="XeOWCkvkYtLvS--5uMvi-58">
          <mxGeometry relative="1" as="geometry" />
        </mxCell>
        <mxCell id="XeOWCkvkYtLvS--5uMvi-62" style="edgeStyle=orthogonalEdgeStyle;rounded=0;orthogonalLoop=1;jettySize=auto;html=1;" edge="1" parent="WIyWlLk6GJQsqaUBKTNV-1" source="XeOWCkvkYtLvS--5uMvi-54" target="XeOWCkvkYtLvS--5uMvi-61">
          <mxGeometry relative="1" as="geometry" />
        </mxCell>
        <mxCell id="XeOWCkvkYtLvS--5uMvi-54" value="IGBT状态为1" style="rhombus;whiteSpace=wrap;html=1;" vertex="1" parent="WIyWlLk6GJQsqaUBKTNV-1">
          <mxGeometry x="340" y="1280" width="80" height="60" as="geometry" />
        </mxCell>
        <mxCell id="XeOWCkvkYtLvS--5uMvi-56" value="存在" style="text;html=1;align=center;verticalAlign=middle;whiteSpace=wrap;rounded=0;" vertex="1" parent="WIyWlLk6GJQsqaUBKTNV-1">
          <mxGeometry x="420" y="1160" width="60" height="30" as="geometry" />
        </mxCell>
        <mxCell id="XeOWCkvkYtLvS--5uMvi-65" style="edgeStyle=orthogonalEdgeStyle;rounded=0;orthogonalLoop=1;jettySize=auto;html=1;exitX=0.5;exitY=1;exitDx=0;exitDy=0;entryX=0.5;entryY=0;entryDx=0;entryDy=0;" edge="1" parent="WIyWlLk6GJQsqaUBKTNV-1" source="XeOWCkvkYtLvS--5uMvi-58" target="XeOWCkvkYtLvS--5uMvi-63">
          <mxGeometry relative="1" as="geometry" />
        </mxCell>
        <mxCell id="XeOWCkvkYtLvS--5uMvi-58" value="将一个新的向量于矩阵合并" style="rounded=0;whiteSpace=wrap;html=1;" vertex="1" parent="WIyWlLk6GJQsqaUBKTNV-1">
          <mxGeometry x="240" y="1400" width="100" height="40" as="geometry" />
        </mxCell>
        <mxCell id="XeOWCkvkYtLvS--5uMvi-60" value="yes" style="text;html=1;align=center;verticalAlign=middle;whiteSpace=wrap;rounded=0;" vertex="1" parent="WIyWlLk6GJQsqaUBKTNV-1">
          <mxGeometry x="270" y="1330" width="60" height="30" as="geometry" />
        </mxCell>
        <mxCell id="XeOWCkvkYtLvS--5uMvi-64" style="edgeStyle=orthogonalEdgeStyle;rounded=0;orthogonalLoop=1;jettySize=auto;html=1;exitX=0.5;exitY=1;exitDx=0;exitDy=0;entryX=0.5;entryY=0;entryDx=0;entryDy=0;" edge="1" parent="WIyWlLk6GJQsqaUBKTNV-1" source="XeOWCkvkYtLvS--5uMvi-61" target="XeOWCkvkYtLvS--5uMvi-63">
          <mxGeometry relative="1" as="geometry" />
        </mxCell>
        <mxCell id="XeOWCkvkYtLvS--5uMvi-61" value="将新的向量取反后与矩阵合并" style="rounded=0;whiteSpace=wrap;html=1;" vertex="1" parent="WIyWlLk6GJQsqaUBKTNV-1">
          <mxGeometry x="410" y="1400" width="100" height="40" as="geometry" />
        </mxCell>
        <mxCell id="XeOWCkvkYtLvS--5uMvi-88" style="edgeStyle=orthogonalEdgeStyle;rounded=0;orthogonalLoop=1;jettySize=auto;html=1;exitX=0.5;exitY=1;exitDx=0;exitDy=0;entryX=0.5;entryY=0;entryDx=0;entryDy=0;" edge="1" parent="WIyWlLk6GJQsqaUBKTNV-1" source="XeOWCkvkYtLvS--5uMvi-63" target="XeOWCkvkYtLvS--5uMvi-87">
          <mxGeometry relative="1" as="geometry" />
        </mxCell>
        <mxCell id="XeOWCkvkYtLvS--5uMvi-63" value="判断是否存在IGBT" style="rhombus;whiteSpace=wrap;html=1;" vertex="1" parent="WIyWlLk6GJQsqaUBKTNV-1">
          <mxGeometry x="334" y="1480" width="80" height="70" as="geometry" />
        </mxCell>
        <mxCell id="XeOWCkvkYtLvS--5uMvi-86" value="存在" style="text;html=1;align=center;verticalAlign=middle;whiteSpace=wrap;rounded=0;" vertex="1" parent="WIyWlLk6GJQsqaUBKTNV-1">
          <mxGeometry x="390" y="1540" width="60" height="30" as="geometry" />
        </mxCell>
        <mxCell id="XeOWCkvkYtLvS--5uMvi-90" style="edgeStyle=orthogonalEdgeStyle;rounded=0;orthogonalLoop=1;jettySize=auto;html=1;exitX=0.5;exitY=1;exitDx=0;exitDy=0;entryX=0.5;entryY=0;entryDx=0;entryDy=0;" edge="1" parent="WIyWlLk6GJQsqaUBKTNV-1" source="XeOWCkvkYtLvS--5uMvi-87" target="XeOWCkvkYtLvS--5uMvi-89">
          <mxGeometry relative="1" as="geometry" />
        </mxCell>
        <mxCell id="XeOWCkvkYtLvS--5uMvi-87" value="迭代所有的二极管" style="rhombus;whiteSpace=wrap;html=1;" vertex="1" parent="WIyWlLk6GJQsqaUBKTNV-1">
          <mxGeometry x="334" y="1570" width="80" height="70" as="geometry" />
        </mxCell>
        <mxCell id="XeOWCkvkYtLvS--5uMvi-93" style="edgeStyle=orthogonalEdgeStyle;rounded=0;orthogonalLoop=1;jettySize=auto;html=1;exitX=0.5;exitY=1;exitDx=0;exitDy=0;entryX=0.5;entryY=0;entryDx=0;entryDy=0;" edge="1" parent="WIyWlLk6GJQsqaUBKTNV-1" source="XeOWCkvkYtLvS--5uMvi-89" target="XeOWCkvkYtLvS--5uMvi-91">
          <mxGeometry relative="1" as="geometry">
            <Array as="points">
              <mxPoint x="374" y="1740" />
              <mxPoint x="280" y="1740" />
            </Array>
          </mxGeometry>
        </mxCell>
        <mxCell id="XeOWCkvkYtLvS--5uMvi-94" style="edgeStyle=orthogonalEdgeStyle;rounded=0;orthogonalLoop=1;jettySize=auto;html=1;exitX=0.5;exitY=1;exitDx=0;exitDy=0;entryX=0.5;entryY=0;entryDx=0;entryDy=0;" edge="1" parent="WIyWlLk6GJQsqaUBKTNV-1" source="XeOWCkvkYtLvS--5uMvi-89" target="XeOWCkvkYtLvS--5uMvi-92">
          <mxGeometry relative="1" as="geometry" />
        </mxCell>
        <mxCell id="XeOWCkvkYtLvS--5uMvi-89" value="二极管状态为1" style="rhombus;whiteSpace=wrap;html=1;" vertex="1" parent="WIyWlLk6GJQsqaUBKTNV-1">
          <mxGeometry x="334" y="1660" width="80" height="60" as="geometry" />
        </mxCell>
        <mxCell id="XeOWCkvkYtLvS--5uMvi-91" value="将一个新的向量于矩阵合并" style="rounded=0;whiteSpace=wrap;html=1;" vertex="1" parent="WIyWlLk6GJQsqaUBKTNV-1">
          <mxGeometry x="230" y="1760" width="100" height="40" as="geometry" />
        </mxCell>
        <mxCell id="XeOWCkvkYtLvS--5uMvi-92" value="将新的向量取反后与矩阵合并" style="rounded=0;whiteSpace=wrap;html=1;" vertex="1" parent="WIyWlLk6GJQsqaUBKTNV-1">
          <mxGeometry x="430" y="1760" width="100" height="40" as="geometry" />
        </mxCell>
        <mxCell id="XeOWCkvkYtLvS--5uMvi-95" value="ouput" style="rounded=0;whiteSpace=wrap;html=1;" vertex="1" parent="WIyWlLk6GJQsqaUBKTNV-1">
          <mxGeometry x="314" y="2270" width="100" height="40" as="geometry" />
        </mxCell>
        <mxCell id="XeOWCkvkYtLvS--5uMvi-97" value="n1(矩阵)" style="rounded=0;whiteSpace=wrap;html=1;" vertex="1" parent="WIyWlLk6GJQsqaUBKTNV-1">
          <mxGeometry x="650" y="1860" width="100" height="40" as="geometry" />
        </mxCell>
        <mxCell id="XeOWCkvkYtLvS--5uMvi-98" value="n2(空矩阵）" style="rounded=0;whiteSpace=wrap;html=1;" vertex="1" parent="WIyWlLk6GJQsqaUBKTNV-1">
          <mxGeometry x="650" y="1920" width="100" height="40" as="geometry" />
        </mxCell>
        <mxCell id="XeOWCkvkYtLvS--5uMvi-99" value="n3(空矩阵）" style="rounded=0;whiteSpace=wrap;html=1;" vertex="1" parent="WIyWlLk6GJQsqaUBKTNV-1">
          <mxGeometry x="650" y="1980" width="100" height="40" as="geometry" />
        </mxCell>
        <mxCell id="XeOWCkvkYtLvS--5uMvi-100" value="n4（空矩阵）" style="rounded=0;whiteSpace=wrap;html=1;" vertex="1" parent="WIyWlLk6GJQsqaUBKTNV-1">
          <mxGeometry x="650" y="2050" width="100" height="40" as="geometry" />
        </mxCell>
        <mxCell id="XeOWCkvkYtLvS--5uMvi-101" value="n5（断路器状态）" style="rounded=0;whiteSpace=wrap;html=1;fillColor=#FF3333;" vertex="1" parent="WIyWlLk6GJQsqaUBKTNV-1">
          <mxGeometry x="650" y="2120" width="100" height="40" as="geometry" />
        </mxCell>
        <mxCell id="XeOWCkvkYtLvS--5uMvi-102" value="n6（IGBT输出向量）" style="rounded=0;whiteSpace=wrap;html=1;fillColor=#FFFFFF;" vertex="1" parent="WIyWlLk6GJQsqaUBKTNV-1">
          <mxGeometry x="650" y="2180" width="100" height="40" as="geometry" />
        </mxCell>
        <mxCell id="XeOWCkvkYtLvS--5uMvi-103" value="n7（二极管输出向量）" style="rounded=0;whiteSpace=wrap;html=1;fillColor=#FFFFFF;" vertex="1" parent="WIyWlLk6GJQsqaUBKTNV-1">
          <mxGeometry x="650" y="2240" width="100" height="40" as="geometry" />
        </mxCell>
        <mxCell id="XeOWCkvkYtLvS--5uMvi-104" value="更新IGBT输出值" style="rounded=0;whiteSpace=wrap;html=1;fillColor=#FFFFFF;" vertex="1" parent="WIyWlLk6GJQsqaUBKTNV-1">
          <mxGeometry x="230" y="2190" width="100" height="40" as="geometry" />
        </mxCell>
        <mxCell id="XeOWCkvkYtLvS--5uMvi-105" value="更新二极管输出值" style="rounded=0;whiteSpace=wrap;html=1;fillColor=#FFFFFF;" vertex="1" parent="WIyWlLk6GJQsqaUBKTNV-1">
          <mxGeometry x="440" y="2190" width="100" height="40" as="geometry" />
        </mxCell>
      </root>
    </mxGraphModel>
  </diagram>
</mxfile>
